<svg xmlns="http://www.w3.org/2000/svg" viewBox="0 0 24 24"><defs><style>.cls-1{fill:#ecd14d;}</style></defs><g id="Capa_2" data-name="Capa 2"><g id="Capa_1-2" data-name="Capa 1"><path class="cls-1" d="M12,0A12,12,0,0,0,.37,9.05a.5.5,0,0,0,.36.61.52.52,0,0,0,.61-.37,11,11,0,1,1,0,5.42.52.52,0,0,0-.61-.37A.5.5,0,0,0,.37,15,12,12,0,1,0,12,0Z"/><path class="cls-1" d="M.5,12.5H14.7l-2,2a.5.5,0,0,0,0,.7.51.51,0,0,0,.36.15.49.49,0,0,0,.35-.15l2.83-2.83a.46.46,0,0,0,.11-.16.5.5,0,0,0,0-.38.46.46,0,0,0-.11-.16L13.43,8.82a.48.48,0,0,0-.7,0,.5.5,0,0,0,0,.71l2,2H.5a.5.5,0,0,0,0,1Z"/></g></g></svg>