<svg xmlns="http://www.w3.org/2000/svg" data-name="Layer 1" viewBox="0 0 64 80" x="0px" y="0px"><title>Artboard 5</title><path d="M51,7H17a1,1,0,0,0-1,1V56a1,1,0,0,0,1,1H51a1,1,0,0,0,1-1V8A1,1,0,0,0,51,7ZM50,55H18V9H50Z"/><path d="M22,29H32a1,1,0,0,0,1-1V25.85a5.87,5.87,0,0,0-3.07-5.15A3.94,3.94,0,0,0,31,18a4,4,0,0,0-8,0,3.94,3.94,0,0,0,1.07,2.7A5.87,5.87,0,0,0,21,25.85V28A1,1,0,0,0,22,29Zm5-13a2,2,0,1,1-2,2A2,2,0,0,1,27,16Zm-4,9.85A3.86,3.86,0,0,1,26.85,22h.3A3.86,3.86,0,0,1,31,25.85V27H23Z"/><rect x="37" y="15" width="9" height="2"/><rect x="37" y="21" width="9" height="2"/><rect x="22" y="39" width="24" height="2"/><rect x="22" y="45" width="24" height="2"/><rect x="22" y="33" width="24" height="2"/><rect x="37" y="27" width="9" height="2"/><text x="0" y="79" fill="#000000" font-size="5px" font-weight="bold" font-family="'Helvetica Neue', Helvetica, Arial-Unicode, Arial, Sans-serif">Created by Anagaja Design</text><text x="0" y="84" fill="#000000" font-size="5px" font-weight="bold" font-family="'Helvetica Neue', Helvetica, Arial-Unicode, Arial, Sans-serif">from the Noun Project</text></svg>