<?xml version="1.0" encoding="UTF-8" standalone="no"?>
<!DOCTYPE svg PUBLIC "-//W3C//DTD SVG 1.1//EN" "http://www.w3.org/Graphics/SVG/1.1/DTD/svg11.dtd">
<svg version="1.1" xmlns="http://www.w3.org/2000/svg" xmlns:xlink="http://www.w3.org/1999/xlink" preserveAspectRatio="xMidYMid meet" viewBox="0 0 360 360" width="360" height="360"><defs><path d="M222.29 171.35C222.29 254.14 205.48 321.35 184.79 321.35C164.09 321.35 147.29 254.14 147.29 171.35C147.29 88.57 164.09 21.35 184.79 21.35C205.48 21.35 222.29 88.57 222.29 171.35Z" id="b3Ro9pHprQ"></path><path d="M184.79 208.85C102 208.85 34.79 192.05 34.79 171.35C34.79 150.66 102 133.85 184.79 133.85C267.57 133.85 334.79 150.66 334.79 171.35C334.79 192.05 267.57 208.85 184.79 208.85Z" id="dcCuIjhR"></path><path d="M211.3 197.87C152.76 256.41 93.35 292.06 78.72 277.42C64.08 262.79 99.73 203.38 158.27 144.84C216.81 86.3 276.22 50.65 290.85 65.29C305.49 79.92 269.84 139.33 211.3 197.87Z" id="cgyusSVqV"></path><path d="M158.27 197.87C99.73 139.33 64.08 79.92 78.72 65.29C93.35 50.65 152.76 86.3 211.3 144.84C269.84 203.38 305.49 262.79 290.85 277.42C276.22 292.06 216.81 256.41 158.27 197.87Z" id="b91VDmg8f"></path><path d="M219.43 185.71C187.75 262.19 146.5 317.86 127.38 309.94C108.26 302.02 118.46 233.49 150.14 157C181.82 80.52 223.07 24.85 242.19 32.77C261.31 40.69 251.11 109.22 219.43 185.71Z" id="k1TChQ1wTV"></path><path d="M170.43 206C93.95 174.32 38.28 133.07 46.2 113.95C54.12 94.83 122.65 105.03 199.14 136.71C275.62 168.39 331.29 209.64 323.37 228.76C315.45 247.88 246.92 237.68 170.43 206Z" id="aaZ2y7fp31"></path><path d="M199.14 206C122.65 237.68 54.12 247.88 46.2 228.76C38.28 209.64 93.95 168.39 170.43 136.71C246.92 105.03 315.45 94.83 323.37 113.95C331.29 133.07 275.62 174.32 199.14 206Z" id="biIBNsDdD"></path><path d="M150.14 185.71C118.46 109.22 108.26 40.69 127.38 32.77C146.5 24.85 187.75 80.52 219.43 157C251.11 233.49 261.31 302.02 242.19 309.94C223.07 317.86 181.82 262.19 150.14 185.71Z" id="c4K81JrBEq"></path><path d="M269.16 171.35C269.16 217.92 231.35 255.73 184.79 255.73C138.22 255.73 100.41 217.92 100.41 171.35C100.41 124.79 138.22 86.98 184.79 86.98C231.35 86.98 269.16 124.79 269.16 171.35Z" id="bemj4ldO3"></path><path d="M205.88 172.85C205.88 219.42 196.43 257.23 184.79 257.23C173.14 257.23 163.69 219.42 163.69 172.85C163.69 126.29 173.14 88.48 184.79 88.48C196.43 88.48 205.88 126.29 205.88 172.85Z" id="f1wMZcdXO3"></path><path d="M184.79 193.95C138.22 193.95 100.41 184.5 100.41 172.85C100.41 161.21 138.22 151.76 184.79 151.76C231.35 151.76 269.16 161.21 269.16 172.85C269.16 184.5 231.35 193.95 184.79 193.95Z" id="b7sE4G8Ey"></path><path d="M199.7 187.77C166.77 220.7 133.36 240.75 125.12 232.52C116.89 224.28 136.94 190.87 169.87 157.94C202.8 125.01 236.22 104.96 244.45 113.19C252.68 121.42 232.63 154.84 199.7 187.77Z" id="d1ZoWR42pd"></path><path d="M169.87 187.77C136.94 154.84 116.89 121.42 125.12 113.19C133.36 104.96 166.77 125.01 199.7 157.94C232.63 190.87 252.68 224.28 244.45 232.52C236.22 240.75 202.8 220.7 169.87 187.77Z" id="a2hxzAaxf7"></path><path d="M204.27 180.93C186.45 223.95 163.25 255.26 152.5 250.81C141.74 246.35 147.48 207.81 165.3 164.78C183.12 121.76 206.32 90.45 217.07 94.9C227.83 99.36 222.09 137.9 204.27 180.93Z" id="i1VRU12WSF"></path><path d="M176.71 192.34C133.69 174.52 102.38 151.32 106.83 140.57C111.29 129.81 149.83 135.55 192.86 153.37C235.88 171.19 267.19 194.39 262.74 205.14C258.28 215.9 219.74 210.16 176.71 192.34Z" id="b1Lromo2iM"></path><path d="M192.86 192.34C149.83 210.16 111.29 215.9 106.83 205.14C102.38 194.39 133.69 171.19 176.71 153.37C219.74 135.55 258.28 129.81 262.74 140.57C267.19 151.32 235.88 174.52 192.86 192.34Z" id="a39RrRYrrp"></path><path d="M165.3 180.93C147.48 137.9 141.74 99.36 152.5 94.9C163.25 90.45 186.45 121.76 204.27 164.78C222.09 207.81 227.83 246.35 217.07 250.81C206.32 255.26 183.12 223.95 165.3 180.93Z" id="e1zV38zsUz"></path><path d="M206.99 175.45C197.91 221.13 181.26 256.36 169.84 254.09C158.42 251.82 156.53 212.9 165.61 167.22C174.7 121.55 191.34 86.31 202.76 88.58C214.18 90.85 216.08 129.78 206.99 175.45Z" id="hyfYFt9xx"></path><path d="M182.19 192.03C136.51 182.94 101.28 166.29 103.55 154.88C105.82 143.46 144.74 141.56 190.42 150.65C236.09 159.73 271.33 176.38 269.06 187.8C266.79 199.22 227.86 201.11 182.19 192.03Z" id="a9q5DDswe"></path><path d="M198.02 188.88C159.3 214.75 122.62 227.89 116.15 218.21C109.68 208.53 135.86 179.67 174.58 153.8C213.3 127.93 249.99 114.78 256.46 124.46C262.93 134.14 236.74 163 198.02 188.88Z" id="a12cwpRHRR"></path><path d="M168.76 183.06C142.89 144.34 129.75 107.65 139.43 101.18C149.11 94.71 177.97 120.9 203.84 159.62C229.71 198.34 242.86 235.02 233.18 241.49C223.5 247.96 194.64 221.78 168.76 183.06Z" id="b1NqUPMoZ"></path><path d="M203.84 183.06C177.97 221.78 149.11 247.96 139.43 241.49C129.75 235.02 142.89 198.34 168.76 159.62C194.64 120.9 223.5 94.71 233.18 101.18C242.86 107.65 229.71 144.34 203.84 183.06Z" id="a6ckLfiD1I"></path><path d="M174.58 188.88C135.86 163 109.68 134.14 116.15 124.46C122.62 114.78 159.3 127.93 198.02 153.8C236.74 179.67 262.93 208.53 256.46 218.21C249.99 227.89 213.3 214.75 174.58 188.88Z" id="gZDYeGdQF"></path><path d="M190.42 192.03C144.74 201.11 105.82 199.22 103.55 187.8C101.28 176.38 136.51 159.73 182.19 150.65C227.86 141.56 266.79 143.46 269.06 154.88C271.33 166.29 236.09 182.94 190.42 192.03Z" id="ecAEH261d"></path><path d="M165.61 175.45C156.53 129.78 158.42 90.85 169.84 88.58C181.26 86.31 197.91 121.55 206.99 167.22C216.08 212.9 214.18 251.82 202.76 254.09C191.34 256.36 174.7 221.13 165.61 175.45Z" id="a4F1mACRTh"></path></defs><g><g><g><g><g><g><g><g><use xlink:href="#b3Ro9pHprQ" opacity="1" fill-opacity="0" stroke="#fbb700" stroke-width="2" stroke-opacity="1"></use></g></g><g><g><use xlink:href="#dcCuIjhR" opacity="1" fill-opacity="0" stroke="#fbb700" stroke-width="2" stroke-opacity="1"></use></g></g></g><g><g><g><use xlink:href="#cgyusSVqV" opacity="1" fill-opacity="0" stroke="#fbb700" stroke-width="2" stroke-opacity="1"></use></g></g><g><g><use xlink:href="#b91VDmg8f" opacity="1" fill-opacity="0" stroke="#fbb700" stroke-width="2" stroke-opacity="1"></use></g></g></g></g><g><g><g><g><use xlink:href="#k1TChQ1wTV" opacity="1" fill-opacity="0" stroke="#fbb700" stroke-width="2" stroke-opacity="1"></use></g></g><g><g><use xlink:href="#aaZ2y7fp31" opacity="1" fill-opacity="0" stroke="#fbb700" stroke-width="2" stroke-opacity="1"></use></g></g></g><g><g><g><use xlink:href="#biIBNsDdD" opacity="1" fill-opacity="0" stroke="#fbb700" stroke-width="2" stroke-opacity="1"></use></g></g><g><g><use xlink:href="#c4K81JrBEq" opacity="1" fill-opacity="0" stroke="#fbb700" stroke-width="2" stroke-opacity="1"></use></g></g></g></g></g><g><g><g><use xlink:href="#bemj4ldO3" opacity="1" fill-opacity="0" stroke="#634200" stroke-width="2" stroke-opacity="1"></use></g></g><g><g><g><g><g><g><use xlink:href="#f1wMZcdXO3" opacity="1" fill-opacity="0" stroke="#634200" stroke-width="2" stroke-opacity="1"></use></g></g><g><g><use xlink:href="#b7sE4G8Ey" opacity="1" fill-opacity="0" stroke="#634200" stroke-width="2" stroke-opacity="1"></use></g></g></g><g><g><g><use xlink:href="#d1ZoWR42pd" opacity="1" fill-opacity="0" stroke="#634200" stroke-width="2" stroke-opacity="1"></use></g></g><g><g><use xlink:href="#a2hxzAaxf7" opacity="1" fill-opacity="0" stroke="#634200" stroke-width="2" stroke-opacity="1"></use></g></g></g></g><g><g><g><g><use xlink:href="#i1VRU12WSF" opacity="1" fill-opacity="0" stroke="#634200" stroke-width="2" stroke-opacity="1"></use></g></g><g><g><use xlink:href="#b1Lromo2iM" opacity="1" fill-opacity="0" stroke="#634200" stroke-width="2" stroke-opacity="1"></use></g></g></g><g><g><g><use xlink:href="#a39RrRYrrp" opacity="1" fill-opacity="0" stroke="#634200" stroke-width="2" stroke-opacity="1"></use></g></g><g><g><use xlink:href="#e1zV38zsUz" opacity="1" fill-opacity="0" stroke="#634200" stroke-width="2" stroke-opacity="1"></use></g></g></g></g></g><g><g><g><g><g><use xlink:href="#hyfYFt9xx" opacity="1" fill-opacity="0" stroke="#634200" stroke-width="2" stroke-opacity="1"></use></g></g><g><g><use xlink:href="#a9q5DDswe" opacity="1" fill-opacity="0" stroke="#634200" stroke-width="2" stroke-opacity="1"></use></g></g></g><g><g><g><use xlink:href="#a12cwpRHRR" opacity="1" fill-opacity="0" stroke="#634200" stroke-width="2" stroke-opacity="1"></use></g></g><g><g><use xlink:href="#b1NqUPMoZ" opacity="1" fill-opacity="0" stroke="#634200" stroke-width="2" stroke-opacity="1"></use></g></g></g></g><g><g><g><g><use xlink:href="#a6ckLfiD1I" opacity="1" fill-opacity="0" stroke="#634200" stroke-width="2" stroke-opacity="1"></use></g></g><g><g><use xlink:href="#gZDYeGdQF" opacity="1" fill-opacity="0" stroke="#634200" stroke-width="2" stroke-opacity="1"></use></g></g></g><g><g><g><use xlink:href="#ecAEH261d" opacity="1" fill-opacity="0" stroke="#634200" stroke-width="2" stroke-opacity="1"></use></g></g><g><g><use xlink:href="#a4F1mACRTh" opacity="1" fill-opacity="0" stroke="#634200" stroke-width="2" stroke-opacity="1"></use></g></g></g></g></g></g></g></g></g></g></svg>